<?xml version="1.0" standalone="yes"?>

<svg version="1.1" viewBox="0.0 0.0 521.0603674540682 521.0603674540682" fill="none" stroke="none" stroke-linecap="square" stroke-miterlimit="10" xmlns="http://www.w3.org/2000/svg" xmlns:xlink="http://www.w3.org/1999/xlink"><clipPath id="p.0"><path d="m0 0l521.06036 0l0 521.06036l-521.06036 0l0 -521.06036z" clip-rule="nonzero"></path></clipPath><g clip-path="url(#p.0)"><path fill="#000000" fill-opacity="0.0" d="m0 0l521.06036 0l0 521.06036l-521.06036 0z" fill-rule="evenodd"></path><path fill="#be4734" d="m-0.26134068 -0.47981364l0 0c0 -0.0024009347 0.0019463301 -0.0043472648 0.004347235 -0.0043472648l521.665 0.0043472648c0.001159668 0 0.0022583008 4.580021E-4 0.0030517578 0.0012732744c8.544922E-4 8.152425E-4 0.0012817383 0.0019209981 0.0012817383 0.0030739605l-0.004333496 521.6649c0 0.0024414062 -0.001953125 0.0043945312 -0.004333496 0.0043945312l-521.665 -0.0043945312l0 0c-0.0024009347 0 -0.004347235 -0.0018920898 -0.004347235 -0.004333496z" fill-rule="evenodd"></path><path fill="#85200c" d="m474.0565 155.97606c-55.01291 -105.84059 -180.42181 -153.90211 -292.07986 -111.93625c-111.65804 41.96587 -174.36671 160.73001 -146.04977 276.60413c28.316948 115.874084 138.73303 192.3305 257.1613 178.06863c118.42825 -14.261932 207.53595 -114.74634 207.53363 -234.03027l-56.854828 0.0011291504c0.0017700195 90.512634 -67.61316 166.7602 -157.4765 177.58215c-89.86337 10.82193 -173.6471 -47.193237 -195.134 -135.1185c-21.4869 -87.92525 26.096443 -178.04349 110.82256 -209.88718c84.726135 -31.843697 179.88638 4.625389 221.63019 84.93723z" fill-rule="evenodd"></path><path fill="#85200c" d="m248.62054 494.64813l16.283478 18.64569l16.283447 -18.64569z" fill-rule="evenodd"></path><path fill="#a61c00" d="m149.32724 371.7327l87.910324 -138.10976l138.1085 -87.911575l-87.91031 138.10977z" fill-rule="evenodd"></path><path fill="#85200c" d="m269.47095 231.84564l218.20471 0l0 58.80316l-218.20471 0z" fill-rule="evenodd"></path><path fill="#85200c" d="m282.05954 231.84564l218.20471 0l0 27.527557l-218.20471 0z" fill-rule="evenodd"></path><path fill="#85200c" d="m491.9224 280.54117l18.64566 -17.338593l-18.64566 -17.338562z" fill-rule="evenodd"></path><path fill="#f3f1e7" d="m469.72528 151.64485c-55.01291 -105.8406 -180.42181 -153.90211 -292.07986 -111.93626c-111.65804 41.965866 -174.36671 160.73001 -146.04977 276.6041c28.316952 115.874084 138.73303 192.33057 257.1613 178.06863c118.42825 -14.261902 207.53595 -114.74631 207.53363 -234.03024l-56.854828 0.0010986328c0.0017700195 90.512665 -67.61316 166.76022 -157.4765 177.58215c-89.86337 10.82196 -173.6471 -47.193207 -195.134 -135.11847c-21.486908 -87.92525 26.096436 -178.04349 110.82256 -209.88718c84.726135 -31.8437 179.88638 4.6253815 221.63019 84.93723z" fill-rule="evenodd"></path><path fill="#f3f1e7" d="m244.28984 29.822023l16.283463 -18.645668l16.283478 18.645668z" fill-rule="evenodd"></path><path fill="#f3f1e7" d="m244.28984 490.40787l16.283463 18.64566l16.283478 -18.64566z" fill-rule="evenodd"></path><path fill="#f3f1e7" d="m30.938135 277.3312l-18.64567 -16.97638l18.64567 -16.97638z" fill-rule="evenodd"></path><path fill="#f3f1e7" d="m265.14023 229.01363l231.1496 0l0 37.76378l-231.1496 0z" fill-rule="evenodd"></path><path fill="#f3f1e7" d="m491.01425 275.0063l18.64566 -16.283447l-18.64566 -16.283478z" fill-rule="evenodd"></path><path fill="#f3f1e7" d="m265.23398 245.69128l193.19684 0l0 40.283478l-193.19684 0z" fill-rule="evenodd"></path></g></svg>

